<svg version="1.2" xmlns="http://www.w3.org/2000/svg" viewBox="0 0 395 366" width="395" height="366">
	<title>astro-logo[1]-svg</title>
	<style>
		.s0 { fill: #5b65e8 } 
	</style>
	<g id="Layer_2">
		<g id="Layer_1-2">
			<path id="Layer" class="s0" d="m35.7 358c-2.6-5.1 28.7-20.3 63.6-53.7q10.1-9.8 19.9-19.9 9.6-10.3 18.8-20.9 9.2-10.6 17.8-21.7 8.7-11 16.8-22.4c5.5-7.7 14.2 10.6 22.5-7.2 13.5-28.9 5.6-59.4 5.6-59.4-14.7-53-74.7-80.2-100.7-92.1-11.6-5.3-40.9-21.1-49.5-29.3-10.1-9.7-19.2-20.4-14.8-24.4 33.7 11.8 61.9 22.3 82.9 30.4 27.3 10.4 36.5 14.4 47.2 22 25.5 18.6 38.4 43.7 45 60.8 14-36.4 45-58.4 76.1-57.9q3.7 0.1 7.4 0.6 3.7 0.7 7.4 1.7 3.5 1.1 7 2.6 3.4 1.6 6.6 3.5 1.9 1.2 3.9 2.6 1.8 1.3 3.6 2.9 1.8 1.5 3.4 3.1 1.7 1.7 3.1 3.5c3.7 4 16.9 13.1 65.7 31.4-36.2 6-85.3 20.4-111.4 60.8-17.5 27.4-7.6 40.2-25.5 70.6-21.6 36.3-58.8 52.7-132.4 84.1-5.9 2.5-85.8 36.5-90 28.3z"/>
			<path id="Layer" class="s0" d="m0 63.1q1.8 5.7 3.9 11.3 2.1 5.4 4.5 10.9 2.5 5.4 5.2 10.7 2.8 5.2 5.9 10.3c25.8 42.7 62.3 65 90.7 82q6.6 4.1 13.5 7.8 6.9 3.8 14 7.2 7 3.3 14.2 6.6 7.2 3.1 14.5 5.8 1.6-3.9 2.7-7.9 1.2-4.1 1.9-8.3 0.6-4.2 0.9-8.4 0.1-4.2-0.2-8.5c-1.7-25-16.3-41.9-21.1-47.2-20.8-23.1-41.8-21.1-88.2-39.9q-8.1-3.3-16.1-7-8-3.7-15.8-7.8-7.8-4.1-15.4-8.5-7.7-4.5-15.1-9.1z"/>
		</g>
	</g>
</svg>